<svg width="116" height="64" viewBox="0 0 116 64" fill="none" xmlns="http://www.w3.org/2000/svg">
<path d="M111.267 16.8808C111.761 18.5837 110.954 20.7021 108.752 23.1457C106.57 25.5668 103.122 28.1866 98.6466 30.8422C89.702 36.1495 76.7536 41.5407 61.9233 45.7452C47.0929 49.9496 33.2225 52.1616 22.7924 52.3471C17.5736 52.4399 13.2454 52.0246 10.0976 51.1146C6.92032 50.196 5.10065 48.8223 4.60674 47.1193C4.11283 45.4163 4.91971 43.2979 7.12185 40.8543C9.30363 38.4333 12.7515 35.8134 17.2271 33.1579C26.1717 27.8506 39.1201 22.4593 53.9504 18.2549C68.7808 14.0504 82.6512 11.8384 93.0813 11.6529C98.3001 11.5601 102.628 11.9754 105.776 12.8855C108.953 13.804 110.773 15.1778 111.267 16.8808Z" stroke="#9669E4" stroke-opacity="0.75"/>
<path d="M113.056 25.7566C113.26 27.5162 112.112 29.4744 109.533 31.5269C106.978 33.5603 103.142 35.584 98.2852 37.4759C88.5796 41.2568 74.9107 44.4696 59.5829 46.2058C44.2551 47.942 30.2054 47.8689 19.8864 46.3562C14.7232 45.5993 10.5229 44.486 7.56916 43.0765C4.58767 41.6538 3.02158 40.003 2.81769 38.2435C2.61379 36.4839 3.76168 34.5256 6.34047 32.4731C8.89525 30.4397 12.732 28.416 17.5884 26.5242C27.294 22.7432 40.9629 19.5305 56.2906 17.7943C71.6184 16.058 85.6681 16.1311 95.9871 17.6438C101.15 18.4007 105.351 19.514 108.304 20.9235C111.286 22.3462 112.852 23.997 113.056 25.7566Z" stroke="#9669E4" stroke-opacity="0.5"/>
<path d="M110.398 14.1546C110.981 15.83 110.286 17.9872 108.216 20.5408C106.165 23.0709 102.86 25.8647 98.5303 28.7472C89.8775 34.5079 77.2308 40.5587 62.6421 45.5213C48.0535 50.4839 34.3184 53.4073 23.9124 54.1297C18.7056 54.4912 14.3614 54.2994 11.1699 53.5527C7.94871 52.7991 6.05897 51.5209 5.47592 49.8454C4.89286 48.17 5.58717 46.0128 7.65749 43.4592C9.70872 40.9291 13.0139 38.1353 17.3434 35.2528C25.9962 29.4921 38.6429 23.4413 53.2315 18.4787C67.8202 13.5161 81.5552 10.5927 91.9613 9.8703C97.1681 9.50883 101.512 9.70064 104.704 10.4473C107.925 11.2009 109.815 12.4791 110.398 14.1546Z" stroke="#9669E4" stroke-opacity="0.25"/>
</svg>
