<svg width="239" height="134" viewBox="0 0 239 134" fill="none" xmlns="http://www.w3.org/2000/svg">
<path d="M229.305 35.7236C230.402 39.5495 228.575 44.1493 224.019 49.2627C219.482 54.3543 212.342 59.8348 203.118 65.3705C184.676 76.438 158.006 87.6664 127.48 96.4196C96.9543 105.173 68.3865 109.784 46.8823 110.17C36.1264 110.364 27.167 109.5 20.6216 107.586C14.0482 105.664 10.0613 102.731 8.96422 98.9052C7.86718 95.0794 9.69421 90.4796 14.2502 85.3661C18.7868 80.2745 25.9269 74.794 35.151 69.2584C53.5925 58.1909 80.2628 46.9624 110.789 38.2093C141.315 29.4561 169.882 24.8453 191.387 24.4585C202.143 24.265 211.102 25.1291 217.647 27.043C224.221 28.9651 228.208 31.8978 229.305 35.7236Z" stroke="#9669E4" stroke-width="2" stroke-opacity="0.75"/>
<path d="M233 54.2692C233.453 58.2234 230.894 62.4602 225.559 66.7548C220.247 71.0312 212.303 75.263 202.294 79.2066C182.284 87.091 154.131 93.7812 122.581 97.3957C91.0311 101.01 62.094 100.861 40.8189 97.7064C30.1776 96.1286 21.4822 93.8031 15.3406 90.839C9.17274 87.8621 5.72229 84.3138 5.26928 80.3596C4.81626 76.4055 7.37479 72.1687 12.7096 67.874C18.0216 63.5977 25.9658 59.3659 35.9745 55.4223C55.9849 47.5378 84.1384 40.8477 115.688 37.2331C147.238 33.6186 176.175 33.768 197.45 36.9225C208.091 38.5003 216.787 40.8258 222.928 43.7899C229.096 46.7667 232.547 50.3151 233 54.2692Z" stroke="#9669E4" stroke-width="2" stroke-opacity="0.5"/>
<path d="M227.509 30.0273C228.804 33.7908 227.219 38.4796 222.936 43.8234C218.671 49.1444 211.826 54.9895 202.903 60.9981C185.063 73.0113 159.014 85.6138 128.985 95.9453C98.9567 106.277 70.6678 112.37 49.213 113.876C38.4818 114.63 29.4895 114.233 22.8533 112.663C16.1887 111.086 12.0544 108.365 10.7595 104.602C9.46469 100.838 11.0496 96.1493 15.333 90.8055C19.5982 85.4845 26.4432 79.6394 35.3663 73.6308C53.2063 61.6176 79.2554 49.0151 109.284 38.6836C139.312 28.3521 167.601 22.2593 189.056 20.7528C199.787 19.9993 208.78 20.3954 215.416 21.9658C222.08 23.5428 226.215 26.2639 227.509 30.0273Z" stroke="#9669E4" stroke-width="2" stroke-opacity="0.25"/>
</svg>
