<svg width="160" height="89" viewBox="0 0 160 89" fill="none" xmlns="http://www.w3.org/2000/svg">
<path d="M153.822 23.2572C154.533 25.7082 153.359 28.7016 150.308 32.0873C147.277 35.4505 142.498 39.0794 136.311 42.7508C123.942 50.0897 106.047 57.5397 85.5575 63.3484C65.0685 69.1571 45.8992 72.2152 31.4765 72.4717C24.2613 72.6 18.2634 72.0264 13.8906 70.7622C9.48844 69.4895 6.8887 67.5658 6.17786 65.1149C5.46702 62.6639 6.64066 59.6704 9.69179 56.2847C12.7226 52.9216 17.5017 49.2927 23.6892 45.6213C36.0578 38.2824 53.9534 30.8324 74.4425 25.0237C94.9315 19.215 114.101 16.1569 128.524 15.9004C135.739 15.7721 141.737 16.3457 146.109 17.6099C150.512 18.8825 153.111 20.8062 153.822 23.2572Z" stroke="#9669E4" stroke-opacity="0.75"/>
<path d="M156.298 35.5436C156.592 38.0762 154.937 40.838 151.364 43.6818C147.815 46.5064 142.497 49.309 135.783 51.9245C122.362 57.1528 103.471 61.592 82.2949 63.9907C61.1186 66.3894 41.7015 66.2894 27.4324 64.1976C20.294 63.1512 14.4731 61.6103 10.37 59.6524C6.23913 57.6812 3.99505 55.3611 3.70158 52.8285C3.40811 50.2959 5.0633 47.5341 8.6362 44.6903C12.1851 41.8656 17.5028 39.0631 24.2168 36.4475C37.6377 31.2193 56.5288 26.7801 77.7051 24.3814C98.8814 21.9827 118.298 22.0827 132.568 24.1745C139.706 25.2209 145.527 26.7618 149.63 28.7197C153.761 30.6908 156.005 33.011 156.298 35.5436Z" stroke="#9669E4" stroke-opacity="0.5"/>
<path d="M152.619 19.4835C153.458 21.8948 152.444 24.9447 149.575 28.4829C146.726 31.9975 142.144 35.8676 136.159 39.8527C124.194 47.8187 106.715 56.1802 86.5597 63.0363C66.4046 69.8924 47.4224 73.9336 33.0329 74.9326C25.8343 75.4323 19.8144 75.1685 15.381 74.1312C10.9178 73.0871 8.22009 71.2999 7.38099 68.8886C6.5419 66.4774 7.55635 63.4274 10.4249 59.8892C13.2743 56.3746 17.8557 52.5045 23.8414 48.5194C35.8065 40.5535 53.2852 32.1919 73.4403 25.3358C93.5955 18.4797 112.578 14.4385 126.967 13.4395C134.166 12.9398 140.186 13.2036 144.619 14.2409C149.082 15.2851 151.78 17.0722 152.619 19.4835Z" stroke="#9669E4" stroke-opacity="0.25"/>
</svg>
